# xmcd
# 
# Track frame offsets:
#     150
#     2322
#     26677
#     48968
#     62790
#     85296
#     113265
#     140177
#     162540
#     184418
#     210311
#     237746
#     267540
#     290395
#     316740
#     330225
# 
# Disc length: 4440
# 
# Revision: 0
# Processed by: cddbd v1.5.2PL0 Copyright (c) Steve Scherf et al.
# Submitted via: fre:ac v1.0.27
# 
DISCID=de115610
DTITLE=William Gibson - Mona Lisa Overdrive
DYEAR=0
DGENRE=
TTITLE0=Disk 08 Track 01
TTITLE1=Disk 08 Track 02
TTITLE2=Disk 08 Track 03
TTITLE3=Disk 08 Track 04
TTITLE4=Disk 08 Track 05
TTITLE5=Disk 08 Track 06
TTITLE6=Disk 08 Track 07
TTITLE7=Disk 08 Track 08
TTITLE8=Disk 08 Track 09
TTITLE9=Disk 08 Track 10
TTITLE10=Disk 08 Track 11
TTITLE11=Disk 08 Track 12
TTITLE12=Disk 08 Track 13
TTITLE13=Disk 08 Track 14
TTITLE14=Disk 08 Track 15
TTITLE15=Disk 08 Track 16
EXTD=
EXTT0=
EXTT1=
EXTT2=
EXTT3=
EXTT4=
EXTT5=
EXTT6=
EXTT7=
EXTT8=
EXTT9=
EXTT10=
EXTT11=
EXTT12=
EXTT13=
EXTT14=
EXTT15=
PLAYORDER=
